<?xml version="1.0" encoding="UTF-8"?>
<svg xmlns="http://www.w3.org/2000/svg" xmlns:xlink="http://www.w3.org/1999/xlink" viewBox="0 0 24 24" width="24px" height="24px">
<g id="surface310466">
<path style=" stroke:none;fill-rule:nonzero;fill:rgb(80.000001%,80.000001%,80.000001%);fill-opacity:1;" d="M 12 2 C 6.484375 2 2 6.484375 2 12 C 2 17.515625 6.484375 22 12 22 C 17.515625 22 22 17.515625 22 12 C 22 6.484375 17.515625 2 12 2 Z M 12 3.5 C 14.070312 3.5 15.964844 4.238281 17.4375 5.464844 C 16.0625 6.675781 14.488281 7.660156 12.789062 8.417969 C 11.90625 6.808594 10.945312 5.25 9.867188 3.777344 C 10.550781 3.605469 11.261719 3.5 12 3.5 Z M 8.394531 4.308594 C 9.5 5.769531 10.476562 7.332031 11.375 8.945312 C 9.523438 9.585938 7.570312 10 5.5 10 C 4.917969 10 4.339844 9.960938 3.769531 9.90625 C 4.398438 7.417969 6.117188 5.375 8.394531 4.308594 Z M 18.5 6.523438 C 19.730469 7.984375 20.476562 9.859375 20.496094 11.917969 C 19.417969 11.648438 18.289062 11.5 17.125 11.5 C 16.210938 11.5 15.328125 11.617188 14.460938 11.789062 C 14.160156 11.089844 13.832031 10.410156 13.492188 9.734375 C 15.320312 8.90625 17.019531 7.839844 18.5 6.523438 Z M 12.089844 10.285156 C 12.40625 10.910156 12.726562 11.53125 13.007812 12.175781 C 9.976562 13.125 7.375 15.050781 5.628906 17.617188 C 4.308594 16.121094 3.5 14.160156 3.5 12 C 3.5 11.792969 3.515625 11.589844 3.53125 11.386719 C 4.179688 11.453125 4.832031 11.5 5.5 11.5 C 7.820312 11.5 10.023438 11.03125 12.089844 10.285156 Z M 17.125 13 C 18.25 13 19.335938 13.160156 20.367188 13.441406 C 19.976562 15.746094 18.667969 17.730469 16.820312 19 C 16.378906 17.03125 15.753906 15.132812 15.042969 13.28125 C 15.730469 13.164062 16.402344 13 17.125 13 Z M 13.546875 13.5625 C 14.332031 15.5625 15.003906 17.621094 15.453125 19.765625 C 14.398438 20.234375 13.230469 20.5 12 20.5 C 10.003906 20.5 8.179688 19.8125 6.730469 18.664062 C 8.304688 16.238281 10.714844 14.421875 13.546875 13.5625 Z M 13.546875 13.5625 "/>
</g>
</svg>
