<?xml version="1.0" encoding="UTF-8"?>
<svg xmlns="http://www.w3.org/2000/svg" xmlns:xlink="http://www.w3.org/1999/xlink" viewBox="0 0 25 25" width="25px" height="25px">
<g id="surface305616">
<path style=" stroke:none;fill-rule:nonzero;fill:rgb(80.000001%,80.000001%,80.000001%);fill-opacity:1;" d="M 7.5 20.832031 L 3.332031 20.832031 L 3.332031 8.332031 L 7.5 8.332031 Z M 5.417969 6.667969 C 4.265625 6.667969 3.332031 5.734375 3.332031 4.582031 C 3.332031 3.433594 4.265625 2.5 5.417969 2.5 C 6.566406 2.5 7.5 3.433594 7.5 4.582031 C 7.5 5.734375 6.566406 6.667969 5.417969 6.667969 Z M 22.5 20.832031 L 18.496094 20.832031 L 18.496094 14.75 C 18.496094 13.300781 18.464844 11.433594 16.410156 11.433594 C 14.324219 11.433594 14.003906 13.011719 14.003906 14.644531 L 14.003906 20.832031 L 10 20.832031 L 10 8.324219 L 13.84375 8.324219 L 13.84375 10.035156 L 13.898438 10.035156 C 14.433594 9.050781 15.742188 8.011719 17.691406 8.011719 C 21.75 8.011719 22.5 10.605469 22.5 13.972656 Z M 22.5 20.832031 "/>
</g>
</svg>
