<?xml version="1.0" encoding="UTF-8"?>
<svg xmlns="http://www.w3.org/2000/svg" xmlns:xlink="http://www.w3.org/1999/xlink" viewBox="0 0 25 25" width="25px" height="25px">
<g id="surface306925">
<path style=" stroke:none;fill-rule:nonzero;fill:rgb(80.000001%,80.000001%,80.000001%);fill-opacity:1;" d="M 12.5 1 C 6.160156 1 1 6.160156 1 12.5 C 1 17.441406 4.132812 21.664062 8.519531 23.289062 C 8.390625 22.164062 8.410156 20.320312 8.621094 19.425781 C 8.816406 18.585938 9.878906 14.082031 9.878906 14.082031 C 9.878906 14.082031 9.558594 13.4375 9.558594 12.488281 C 9.558594 10.992188 10.425781 9.875 11.503906 9.875 C 12.421875 9.875 12.863281 10.566406 12.863281 11.390625 C 12.863281 12.3125 12.277344 13.691406 11.972656 14.96875 C 11.71875 16.039062 12.511719 16.914062 13.566406 16.914062 C 15.476562 16.914062 16.945312 14.898438 16.945312 11.988281 C 16.945312 9.417969 15.09375 7.617188 12.453125 7.617188 C 9.394531 7.617188 7.601562 9.910156 7.601562 12.28125 C 7.601562 13.207031 7.957031 14.195312 8.402344 14.734375 C 8.488281 14.84375 8.5 14.933594 8.476562 15.042969 C 8.394531 15.382812 8.210938 16.113281 8.175781 16.261719 C 8.128906 16.460938 8.019531 16.5 7.816406 16.40625 C 6.476562 15.78125 5.636719 13.820312 5.636719 12.242188 C 5.636719 8.851562 8.097656 5.734375 12.738281 5.734375 C 16.46875 5.734375 19.367188 8.394531 19.367188 11.945312 C 19.367188 15.648438 17.03125 18.632812 13.789062 18.632812 C 12.699219 18.632812 11.675781 18.066406 11.324219 17.398438 C 11.324219 17.398438 10.785156 19.449219 10.652344 19.953125 C 10.425781 20.824219 9.460938 22.625 8.972656 23.445312 C 10.085938 23.804688 11.269531 24 12.5 24 C 18.839844 24 24 18.839844 24 12.5 C 24 6.160156 18.839844 1 12.5 1 Z M 12.5 1 "/>
</g>
</svg>
